<svg width="195" height="35" viewBox="0 0 195 35" fill="none" xmlns="http://www.w3.org/2000/svg">
<path d="M132.5 25.8615H150.1V21.9615H138.5C140.1 15.5615 149.9 14.1615 149.9 7.06155C149.9 3.26155 147.3 0.461548 141.8 0.461548C138.4 0.461548 135.4 1.46155 133.4 2.46155L134.6 6.06155C136.4 5.16155 138.5 4.36155 141.1 4.36155C143.1 4.36155 145 5.26155 145 7.56155C145 12.7615 133.5 13.1615 132.5 25.8615ZM150.6 19.6615H161.9V25.8615H166.4V19.6615H170.2V15.8615H166.4V0.461548H163.1L150.6 16.6615V19.6615ZM155.7 16.0615L162.1 7.46155C162.1 8.16155 161.9 10.3615 161.9 12.3615V15.9615H158.9C158 15.9615 156.3 16.0615 155.7 16.0615Z" fill="#2FC6F6"/>
<path d="M4.7 22.0616V14.1616H6.6C8.3 14.1616 9.7 14.3616 10.7 14.9616C11.7 15.5616 12.3 16.5616 12.3 18.1616C12.3 20.8616 10.7 22.0616 6.9 22.0616H4.7ZM0.1 25.8616H6.8C14.3 25.8616 17 22.5616 17 17.9616C17 14.8616 15.7 12.7616 13.4 11.5616C11.6 10.5616 9.3 10.2616 6.5 10.2616H4.7V4.26155H14.8L16 0.561554H0V25.8616H0.1ZM20.1 25.8616H24.5L30.2 17.6616C31.3 16.1616 32.1 14.6616 32.6 13.8616H32.7C32.6 14.9616 32.5 16.3616 32.5 17.7616V25.7616H37V7.76155H32.6L26.9 15.9616C25.9 17.4616 25 18.9616 24.5 19.7616H24.4C24.5 18.6616 24.6 17.2616 24.6 15.8616V7.86155H20.1V25.8616ZM44.7 25.8616H49.3V11.5616H54.7L55.9 7.76155H39.2V11.5616H44.7V25.8616ZM57.5 34.9616H62V25.8616C62.9 26.1616 63.8 26.2616 64.8 26.2616C70.5 26.2616 74.2 22.3616 74.2 16.7616C74.2 10.9616 70.8 7.26155 64.3 7.26155C61.8 7.26155 59.4 7.76155 57.4 8.36155V34.9616H57.5ZM62 21.9616V11.3616C62.7 11.1616 63.3 11.0616 64.1 11.0616C67.4 11.0616 69.5 12.8616 69.5 16.7616C69.5 20.2616 67.8 22.4616 64.4 22.4616C63.5 22.4616 62.8 22.2616 62 21.9616ZM76.9 25.8616H81.3L87 17.6616C88.1 16.1616 88.9 14.6616 89.4 13.8616H89.5C89.4 14.9616 89.3 16.3616 89.3 17.7616V25.7616H93.8V7.76155H89.4L83.7 15.9616C82.7 17.4616 81.8 18.9616 81.3 19.7616H81.2C81.3 18.6616 81.4 17.2616 81.4 15.8616V7.86155H76.9V25.8616ZM97.4 25.8616H102V18.3616H104.7C105.2 18.3616 105.7 18.8616 106.3 20.0616L108.6 25.8616H113.5L110.2 18.9616C109.6 17.7616 109 17.0616 108.1 16.7616V16.6616C109.6 15.7616 109.8 13.1616 110.7 11.8616C111 11.4616 111.4 11.2616 112 11.2616C112.3 11.2616 112.7 11.2616 113 11.4616V7.56155C112.5 7.36155 111.6 7.26155 111.1 7.26155C109.5 7.26155 108.5 7.86155 107.8 8.86155C106.3 11.0616 106.3 14.8616 104.1 14.8616H102V7.76155H97.4V25.8616ZM123.7 26.2616C126.2 26.2616 128.5 25.4616 129.9 24.4616L128.6 21.3616C127.3 22.0616 126.1 22.5616 124.4 22.5616C121.3 22.5616 119.3 20.5616 119.3 16.8616C119.3 13.5616 121.3 10.9616 124.7 10.9616C126.5 10.9616 127.8 11.4616 129.1 12.3616V8.46155C128.1 7.86155 126.5 7.26155 124.2 7.26155C118.8 7.26155 114.6 11.2616 114.6 16.9616C114.6 22.1616 117.8 26.2616 123.7 26.2616Z" fill="white"/>
<path d="M185.1 19.6615C190 19.6615 194 15.6615 194 10.7615C194 5.86153 190 1.86153 185.1 1.86153C180.2 1.86153 176.2 5.86153 176.2 10.7615C176.3 15.6615 180.2 19.6615 185.1 19.6615Z" stroke="#2FC6F6" stroke-width="1.7688"/>
<path d="M190.7 10.7615H185.8V5.86154H184.5V12.0615H190.7V10.7615Z" fill="#2FC6F6"/>
</svg>
