<svg width="40" height="40" viewBox="0 0 40 40" fill="none" xmlns="http://www.w3.org/2000/svg">
<path fill-rule="evenodd" clip-rule="evenodd" d="M4.67282 13.9221C4.20592 18.2603 4.22673 23.2636 4.87644 27.5842C5.23593 29.9748 7.18705 31.8075 9.5955 32.0169L12.1126 32.2357C17.361 32.6919 22.6391 32.6919 27.8875 32.2357L30.4045 32.0169C32.813 31.8075 34.7641 29.9748 35.1236 27.5842C35.7733 23.2636 35.7941 18.2606 35.3272 13.9224C35.2669 13.4195 35.199 12.9172 35.1236 12.4158C34.7641 10.0251 32.813 8.1924 30.4045 7.98304L27.8875 7.76423C22.6391 7.308 17.361 7.308 12.1126 7.76423L9.5955 7.98304C7.18705 8.1924 5.23593 10.0251 4.87644 12.4158C4.80105 12.9171 4.73318 13.4193 4.67282 13.9221ZM12.3291 10.2548C17.4334 9.81113 22.5666 9.81113 27.671 10.2548L30.188 10.4736C31.4452 10.5829 32.4637 11.5396 32.6514 12.7876C32.6709 12.9171 32.6898 13.0468 32.7083 13.1765L23.4399 18.3256C21.3006 19.5141 18.6993 19.5141 16.56 18.3256L7.29175 13.1766C7.31019 13.0468 7.32915 12.9172 7.34864 12.7876C7.5363 11.5396 8.55478 10.5829 9.812 10.4736L12.3291 10.2548ZM33.0142 15.8665C33.3375 19.646 33.2165 23.4541 32.6514 27.2124C32.4637 28.4603 31.4452 29.417 30.188 29.5263L27.671 29.7451C22.5666 30.1888 17.4334 30.1888 12.3291 29.7451L9.812 29.5263C8.55479 29.417 7.5363 28.4603 7.34864 27.2124C6.78349 23.4541 6.66256 19.6461 6.98584 15.8665L15.3459 20.511C18.2403 22.119 21.7596 22.119 24.654 20.511L33.0142 15.8665Z" fill="#0F56B3"/>
</svg>
